<?xml version="1.0" encoding="UTF-8"?>
<svg version="1.1" xmlns="http://www.w3.org/2000/svg" width="300" height="300">
<path d="M0 0 C99 0 198 0 300 0 C300 99 300 198 300 300 C201 300 102 300 0 300 C0 201 0 102 0 0 Z " fill="#FFFFFF" transform="translate(0,0)"/>
<path d="M0 0 C2.64 0 5.28 0 8 0 C8 2.64 8 5.28 8 8 C10.64 8 13.28 8 16 8 C16 5.36 16 2.72 16 0 C18.64 0 21.28 0 24 0 C24 5.28 24 10.56 24 16 C29.28 16 34.56 16 40 16 C40 18.64 40 21.28 40 24 C37.36 24 34.72 24 32 24 C32 29.28 32 34.56 32 40 C34.64 40 37.28 40 40 40 C40 42.64 40 45.28 40 48 C45.28 48 50.56 48 56 48 C56 50.64 56 53.28 56 56 C50.72 56 45.44 56 40 56 C40 63.92 40 71.84 40 80 C47.92 80 55.84 80 64 80 C64 74.72 64 69.44 64 64 C66.64 64 69.28 64 72 64 C72 58.72 72 53.44 72 48 C79.92 48 87.84 48 96 48 C96 50.64 96 53.28 96 56 C93.36 56 90.72 56 88 56 C88 61.28 88 66.56 88 72 C82.72 72 77.44 72 72 72 C72 74.64 72 77.28 72 80 C74.64 80 77.28 80 80 80 C80 90.56 80 101.12 80 112 C77.36 112 74.72 112 72 112 C72 119.92 72 127.84 72 136 C69.36 136 66.72 136 64 136 C64 138.64 64 141.28 64 144 C69.28 144 74.56 144 80 144 C80 149.28 80 154.56 80 160 C82.64 160 85.28 160 88 160 C88 162.64 88 165.28 88 168 C90.64 168 93.28 168 96 168 C96 170.64 96 173.28 96 176 C101.28 176 106.56 176 112 176 C112 178.64 112 181.28 112 184 C109.36 184 106.72 184 104 184 C104 186.64 104 189.28 104 192 C101.36 192 98.72 192 96 192 C96 197.28 96 202.56 96 208 C93.36 208 90.72 208 88 208 C88 210.64 88 213.28 88 216 C85.36 216 82.72 216 80 216 C80 210.72 80 205.44 80 200 C74.72 200 69.44 200 64 200 C64 197.36 64 194.72 64 192 C61.36 192 58.72 192 56 192 C56 194.64 56 197.28 56 200 C50.72 200 45.44 200 40 200 C40 202.64 40 205.28 40 208 C34.72 208 29.44 208 24 208 C24 210.64 24 213.28 24 216 C18.72 216 13.44 216 8 216 C8 210.72 8 205.44 8 200 C2.72 200 -2.56 200 -8 200 C-8 197.36 -8 194.72 -8 192 C-2.72 192 2.56 192 8 192 C8 189.36 8 186.72 8 184 C-2.56 184 -13.12 184 -24 184 C-24 181.36 -24 178.72 -24 176 C-26.64 176 -29.28 176 -32 176 C-32 173.36 -32 170.72 -32 168 C-26.72 168 -21.44 168 -16 168 C-16 165.36 -16 162.72 -16 160 C-18.64 160 -21.28 160 -24 160 C-24 154.72 -24 149.44 -24 144 C-21.36 144 -18.72 144 -16 144 C-16 141.36 -16 138.72 -16 136 C-23.92 136 -31.84 136 -40 136 C-40 138.64 -40 141.28 -40 144 C-37.36 144 -34.72 144 -32 144 C-32 146.64 -32 149.28 -32 152 C-37.28 152 -42.56 152 -48 152 C-48 149.36 -48 146.72 -48 144 C-53.28 144 -58.56 144 -64 144 C-64 146.64 -64 149.28 -64 152 C-66.64 152 -69.28 152 -72 152 C-72 149.36 -72 146.72 -72 144 C-74.64 144 -77.28 144 -80 144 C-80 146.64 -80 149.28 -80 152 C-85.28 152 -90.56 152 -96 152 C-96 149.36 -96 146.72 -96 144 C-98.64 144 -101.28 144 -104 144 C-104 141.36 -104 138.72 -104 136 C-101.36 136 -98.72 136 -96 136 C-96 133.36 -96 130.72 -96 128 C-98.64 128 -101.28 128 -104 128 C-104 125.36 -104 122.72 -104 120 C-106.64 120 -109.28 120 -112 120 C-112 117.36 -112 114.72 -112 112 C-109.36 112 -106.72 112 -104 112 C-104 109.36 -104 106.72 -104 104 C-101.36 104 -98.72 104 -96 104 C-96 106.64 -96 109.28 -96 112 C-93.36 112 -90.72 112 -88 112 C-88 109.36 -88 106.72 -88 104 C-82.72 104 -77.44 104 -72 104 C-72 106.64 -72 109.28 -72 112 C-69.36 112 -66.72 112 -64 112 C-64 109.36 -64 106.72 -64 104 C-61.36 104 -58.72 104 -56 104 C-56 101.36 -56 98.72 -56 96 C-58.64 96 -61.28 96 -64 96 C-64 93.36 -64 90.72 -64 88 C-58.72 88 -53.44 88 -48 88 C-48 85.36 -48 82.72 -48 80 C-45.36 80 -42.72 80 -40 80 C-40 82.64 -40 85.28 -40 88 C-37.36 88 -34.72 88 -32 88 C-32 82.72 -32 77.44 -32 72 C-26.72 72 -21.44 72 -16 72 C-16 69.36 -16 66.72 -16 64 C-13.36 64 -10.72 64 -8 64 C-8 69.28 -8 74.56 -8 80 C-10.64 80 -13.28 80 -16 80 C-16 82.64 -16 85.28 -16 88 C-18.64 88 -21.28 88 -24 88 C-24 90.64 -24 93.28 -24 96 C-29.28 96 -34.56 96 -40 96 C-40 103.92 -40 111.84 -40 120 C-37.36 120 -34.72 120 -32 120 C-32 117.36 -32 114.72 -32 112 C-29.36 112 -26.72 112 -24 112 C-24 109.36 -24 106.72 -24 104 C-18.72 104 -13.44 104 -8 104 C-8 106.64 -8 109.28 -8 112 C-10.64 112 -13.28 112 -16 112 C-16 114.64 -16 117.28 -16 120 C-13.36 120 -10.72 120 -8 120 C-8 125.28 -8 130.56 -8 136 C-5.36 136 -2.72 136 0 136 C0 133.36 0 130.72 0 128 C2.64 128 5.28 128 8 128 C8 120.08 8 112.16 8 104 C10.64 104 13.28 104 16 104 C16 98.72 16 93.44 16 88 C18.64 88 21.28 88 24 88 C24 74.8 24 61.6 24 48 C21.36 48 18.72 48 16 48 C16 53.28 16 58.56 16 64 C10.72 64 5.44 64 0 64 C0 61.36 0 58.72 0 56 C2.64 56 5.28 56 8 56 C8 53.36 8 50.72 8 48 C5.36 48 2.72 48 0 48 C0 45.36 0 42.72 0 40 C-2.64 40 -5.28 40 -8 40 C-8 34.72 -8 29.44 -8 24 C-5.36 24 -2.72 24 0 24 C0 21.36 0 18.72 0 16 C-5.28 16 -10.56 16 -16 16 C-16 13.36 -16 10.72 -16 8 C-10.72 8 -5.44 8 0 8 C0 5.36 0 2.72 0 0 Z " fill="#FFFFFF" transform="translate(154,50)"/>
<path d="M0 0 C2.64 0 5.28 0 8 0 C8 2.64 8 5.28 8 8 C10.64 8 13.28 8 16 8 C16 10.64 16 13.28 16 16 C18.64 16 21.28 16 24 16 C24 10.72 24 5.44 24 0 C29.28 0 34.56 0 40 0 C40 5.28 40 10.56 40 16 C45.28 16 50.56 16 56 16 C56 18.64 56 21.28 56 24 C53.36 24 50.72 24 48 24 C48 29.28 48 34.56 48 40 C50.64 40 53.28 40 56 40 C56 42.64 56 45.28 56 48 C58.64 48 61.28 48 64 48 C64 50.64 64 53.28 64 56 C61.36 56 58.72 56 56 56 C56 58.64 56 61.28 56 64 C61.28 64 66.56 64 72 64 C72 58.72 72 53.44 72 48 C74.64 48 77.28 48 80 48 C80 61.2 80 74.4 80 88 C77.36 88 74.72 88 72 88 C72 93.28 72 98.56 72 104 C69.36 104 66.72 104 64 104 C64 111.92 64 119.84 64 128 C61.36 128 58.72 128 56 128 C56 130.64 56 133.28 56 136 C53.36 136 50.72 136 48 136 C48 130.72 48 125.44 48 120 C45.36 120 42.72 120 40 120 C40 117.36 40 114.72 40 112 C42.64 112 45.28 112 48 112 C48 109.36 48 106.72 48 104 C42.72 104 37.44 104 32 104 C32 106.64 32 109.28 32 112 C29.36 112 26.72 112 24 112 C24 114.64 24 117.28 24 120 C21.36 120 18.72 120 16 120 C16 112.08 16 104.16 16 96 C21.28 96 26.56 96 32 96 C32 93.36 32 90.72 32 88 C34.64 88 37.28 88 40 88 C40 85.36 40 82.72 40 80 C42.64 80 45.28 80 48 80 C48 74.72 48 69.44 48 64 C45.36 64 42.72 64 40 64 C40 66.64 40 69.28 40 72 C34.72 72 29.44 72 24 72 C24 77.28 24 82.56 24 88 C21.36 88 18.72 88 16 88 C16 85.36 16 82.72 16 80 C13.36 80 10.72 80 8 80 C8 82.64 8 85.28 8 88 C2.72 88 -2.56 88 -8 88 C-8 90.64 -8 93.28 -8 96 C-5.36 96 -2.72 96 0 96 C0 98.64 0 101.28 0 104 C-2.64 104 -5.28 104 -8 104 C-8 106.64 -8 109.28 -8 112 C-10.64 112 -13.28 112 -16 112 C-16 109.36 -16 106.72 -16 104 C-21.28 104 -26.56 104 -32 104 C-32 106.64 -32 109.28 -32 112 C-34.64 112 -37.28 112 -40 112 C-40 109.36 -40 106.72 -40 104 C-45.28 104 -50.56 104 -56 104 C-56 101.36 -56 98.72 -56 96 C-58.64 96 -61.28 96 -64 96 C-64 93.36 -64 90.72 -64 88 C-61.36 88 -58.72 88 -56 88 C-56 85.36 -56 82.72 -56 80 C-58.64 80 -61.28 80 -64 80 C-64 77.36 -64 74.72 -64 72 C-61.36 72 -58.72 72 -56 72 C-56 66.72 -56 61.44 -56 56 C-58.64 56 -61.28 56 -64 56 C-64 53.36 -64 50.72 -64 48 C-53.44 48 -42.88 48 -32 48 C-32 50.64 -32 53.28 -32 56 C-26.72 56 -21.44 56 -16 56 C-16 58.64 -16 61.28 -16 64 C-8.08 64 -0.16 64 8 64 C8 61.36 8 58.72 8 56 C5.36 56 2.72 56 0 56 C0 53.36 0 50.72 0 48 C5.28 48 10.56 48 16 48 C16 45.36 16 42.72 16 40 C21.28 40 26.56 40 32 40 C32 34.72 32 29.44 32 24 C26.72 24 21.44 24 16 24 C16 26.64 16 29.28 16 32 C13.36 32 10.72 32 8 32 C8 29.36 8 26.72 8 24 C5.36 24 2.72 24 0 24 C0 16.08 0 8.16 0 0 Z " fill="#FFFFFF" transform="translate(98,50)"/>
<path d="M0 0 C2.64 0 5.28 0 8 0 C8 5.28 8 10.56 8 16 C5.36 16 2.72 16 0 16 C0 18.64 0 21.28 0 24 C-2.64 24 -5.28 24 -8 24 C-8 26.64 -8 29.28 -8 32 C-13.28 32 -18.56 32 -24 32 C-24 39.92 -24 47.84 -24 56 C-21.36 56 -18.72 56 -16 56 C-16 53.36 -16 50.72 -16 48 C-13.36 48 -10.72 48 -8 48 C-8 45.36 -8 42.72 -8 40 C-2.72 40 2.56 40 8 40 C8 42.64 8 45.28 8 48 C5.36 48 2.72 48 0 48 C0 50.64 0 53.28 0 56 C2.64 56 5.28 56 8 56 C8 61.28 8 66.56 8 72 C10.64 72 13.28 72 16 72 C16 69.36 16 66.72 16 64 C18.64 64 21.28 64 24 64 C24 56.08 24 48.16 24 40 C26.64 40 29.28 40 32 40 C32 34.72 32 29.44 32 24 C34.64 24 37.28 24 40 24 C40 21.36 40 18.72 40 16 C42.64 16 45.28 16 48 16 C48 18.64 48 21.28 48 24 C50.64 24 53.28 24 56 24 C56 26.64 56 29.28 56 32 C53.36 32 50.72 32 48 32 C48 34.64 48 37.28 48 40 C50.64 40 53.28 40 56 40 C56 42.64 56 45.28 56 48 C53.36 48 50.72 48 48 48 C48 50.64 48 53.28 48 56 C50.64 56 53.28 56 56 56 C56 58.64 56 61.28 56 64 C50.72 64 45.44 64 40 64 C40 66.64 40 69.28 40 72 C37.36 72 34.72 72 32 72 C32 74.64 32 77.28 32 80 C26.72 80 21.44 80 16 80 C16 85.28 16 90.56 16 96 C13.36 96 10.72 96 8 96 C8 101.28 8 106.56 8 112 C10.64 112 13.28 112 16 112 C16 109.36 16 106.72 16 104 C18.64 104 21.28 104 24 104 C24 109.28 24 114.56 24 120 C13.44 120 2.88 120 -8 120 C-8 117.36 -8 114.72 -8 112 C-10.64 112 -13.28 112 -16 112 C-16 109.36 -16 106.72 -16 104 C-10.72 104 -5.44 104 0 104 C0 101.36 0 98.72 0 96 C-2.64 96 -5.28 96 -8 96 C-8 90.72 -8 85.44 -8 80 C-5.36 80 -2.72 80 0 80 C0 77.36 0 74.72 0 72 C-7.92 72 -15.84 72 -24 72 C-24 74.64 -24 77.28 -24 80 C-21.36 80 -18.72 80 -16 80 C-16 82.64 -16 85.28 -16 88 C-21.28 88 -26.56 88 -32 88 C-32 85.36 -32 82.72 -32 80 C-37.28 80 -42.56 80 -48 80 C-48 82.64 -48 85.28 -48 88 C-50.64 88 -53.28 88 -56 88 C-56 85.36 -56 82.72 -56 80 C-58.64 80 -61.28 80 -64 80 C-64 82.64 -64 85.28 -64 88 C-69.28 88 -74.56 88 -80 88 C-80 85.36 -80 82.72 -80 80 C-82.64 80 -85.28 80 -88 80 C-88 77.36 -88 74.72 -88 72 C-85.36 72 -82.72 72 -80 72 C-80 69.36 -80 66.72 -80 64 C-82.64 64 -85.28 64 -88 64 C-88 61.36 -88 58.72 -88 56 C-90.64 56 -93.28 56 -96 56 C-96 53.36 -96 50.72 -96 48 C-93.36 48 -90.72 48 -88 48 C-88 45.36 -88 42.72 -88 40 C-85.36 40 -82.72 40 -80 40 C-80 42.64 -80 45.28 -80 48 C-77.36 48 -74.72 48 -72 48 C-72 45.36 -72 42.72 -72 40 C-66.72 40 -61.44 40 -56 40 C-56 42.64 -56 45.28 -56 48 C-53.36 48 -50.72 48 -48 48 C-48 45.36 -48 42.72 -48 40 C-45.36 40 -42.72 40 -40 40 C-40 37.36 -40 34.72 -40 32 C-42.64 32 -45.28 32 -48 32 C-48 29.36 -48 26.72 -48 24 C-42.72 24 -37.44 24 -32 24 C-32 21.36 -32 18.72 -32 16 C-29.36 16 -26.72 16 -24 16 C-24 18.64 -24 21.28 -24 24 C-21.36 24 -18.72 24 -16 24 C-16 18.72 -16 13.44 -16 8 C-10.72 8 -5.44 8 0 8 C0 5.36 0 2.72 0 0 Z " fill="#000000" transform="translate(138,114)"/>
<path d="M0 0 C2.64 0 5.28 0 8 0 C8 2.64 8 5.28 8 8 C13.28 8 18.56 8 24 8 C24 5.36 24 2.72 24 0 C26.64 0 29.28 0 32 0 C32 2.64 32 5.28 32 8 C37.28 8 42.56 8 48 8 C48 13.28 48 18.56 48 24 C50.64 24 53.28 24 56 24 C56 26.64 56 29.28 56 32 C58.64 32 61.28 32 64 32 C64 34.64 64 37.28 64 40 C69.28 40 74.56 40 80 40 C80 42.64 80 45.28 80 48 C77.36 48 74.72 48 72 48 C72 50.64 72 53.28 72 56 C69.36 56 66.72 56 64 56 C64 61.28 64 66.56 64 72 C61.36 72 58.72 72 56 72 C56 74.64 56 77.28 56 80 C53.36 80 50.72 80 48 80 C48 74.72 48 69.44 48 64 C42.72 64 37.44 64 32 64 C32 61.36 32 58.72 32 56 C29.36 56 26.72 56 24 56 C24 58.64 24 61.28 24 64 C21.36 64 18.72 64 16 64 C16 58.72 16 53.44 16 48 C13.36 48 10.72 48 8 48 C8 45.36 8 42.72 8 40 C2.72 40 -2.56 40 -8 40 C-8 34.72 -8 29.44 -8 24 C-2.72 24 2.56 24 8 24 C8 21.36 8 18.72 8 16 C5.36 16 2.72 16 0 16 C0 10.72 0 5.44 0 0 Z " fill="#000000" transform="translate(186,186)"/>
<path d="M0 0 C18.48 0 36.96 0 56 0 C56 18.48 56 36.96 56 56 C37.52 56 19.04 56 0 56 C0 37.52 0 19.04 0 0 Z " fill="#FEFEFE" transform="translate(34,210)"/>
<path d="M0 0 C18.48 0 36.96 0 56 0 C56 18.48 56 36.96 56 56 C37.52 56 19.04 56 0 56 C0 37.52 0 19.04 0 0 Z " fill="#FEFEFE" transform="translate(210,34)"/>
<path d="M0 0 C18.48 0 36.96 0 56 0 C56 18.48 56 36.96 56 56 C37.52 56 19.04 56 0 56 C0 37.52 0 19.04 0 0 Z " fill="#FEFEFE" transform="translate(34,34)"/>
<path d="M0 0 C2.64 0 5.28 0 8 0 C8 2.64 8 5.28 8 8 C10.64 8 13.28 8 16 8 C16 5.36 16 2.72 16 0 C18.64 0 21.28 0 24 0 C24 5.28 24 10.56 24 16 C29.28 16 34.56 16 40 16 C40 18.64 40 21.28 40 24 C37.36 24 34.72 24 32 24 C32 29.28 32 34.56 32 40 C34.64 40 37.28 40 40 40 C40 42.64 40 45.28 40 48 C45.28 48 50.56 48 56 48 C56 50.64 56 53.28 56 56 C50.72 56 45.44 56 40 56 C40 58.64 40 61.28 40 64 C37.36 64 34.72 64 32 64 C32 66.64 32 69.28 32 72 C29.36 72 26.72 72 24 72 C24 64.08 24 56.16 24 48 C21.36 48 18.72 48 16 48 C16 53.28 16 58.56 16 64 C10.72 64 5.44 64 0 64 C0 61.36 0 58.72 0 56 C2.64 56 5.28 56 8 56 C8 53.36 8 50.72 8 48 C5.36 48 2.72 48 0 48 C0 45.36 0 42.72 0 40 C-2.64 40 -5.28 40 -8 40 C-8 34.72 -8 29.44 -8 24 C-5.36 24 -2.72 24 0 24 C0 21.36 0 18.72 0 16 C-5.28 16 -10.56 16 -16 16 C-16 13.36 -16 10.72 -16 8 C-10.72 8 -5.44 8 0 8 C0 5.36 0 2.72 0 0 Z " fill="#000000" transform="translate(154,50)"/>
<path d="M0 0 C18.48 0 36.96 0 56 0 C56 18.48 56 36.96 56 56 C37.52 56 19.04 56 0 56 C0 37.52 0 19.04 0 0 Z M8 8 C8 21.2 8 34.4 8 48 C21.2 48 34.4 48 48 48 C48 34.8 48 21.6 48 8 C34.8 8 21.6 8 8 8 Z " fill="#010101" transform="translate(34,210)"/>
<path d="M0 0 C18.48 0 36.96 0 56 0 C56 18.48 56 36.96 56 56 C37.52 56 19.04 56 0 56 C0 37.52 0 19.04 0 0 Z M8 8 C8 21.2 8 34.4 8 48 C21.2 48 34.4 48 48 48 C48 34.8 48 21.6 48 8 C34.8 8 21.6 8 8 8 Z " fill="#010101" transform="translate(210,34)"/>
<path d="M0 0 C18.48 0 36.96 0 56 0 C56 18.48 56 36.96 56 56 C37.52 56 19.04 56 0 56 C0 37.52 0 19.04 0 0 Z M8 8 C8 21.2 8 34.4 8 48 C21.2 48 34.4 48 48 48 C48 34.8 48 21.6 48 8 C34.8 8 21.6 8 8 8 Z " fill="#010101" transform="translate(34,34)"/>
<path d="M0 0 C10.56 0 21.12 0 32 0 C32 2.64 32 5.28 32 8 C37.28 8 42.56 8 48 8 C48 10.64 48 13.28 48 16 C55.92 16 63.84 16 72 16 C72 18.64 72 21.28 72 24 C56.16 24 40.32 24 24 24 C24 29.28 24 34.56 24 40 C18.72 40 13.44 40 8 40 C8 37.36 8 34.72 8 32 C5.36 32 2.72 32 0 32 C0 29.36 0 26.72 0 24 C2.64 24 5.28 24 8 24 C8 18.72 8 13.44 8 8 C5.36 8 2.72 8 0 8 C0 5.36 0 2.72 0 0 Z " fill="#000000" transform="translate(34,98)"/>
<path d="M0 0 C2.64 0 5.28 0 8 0 C8 2.64 8 5.28 8 8 C10.64 8 13.28 8 16 8 C16 15.92 16 23.84 16 32 C18.64 32 21.28 32 24 32 C24 34.64 24 37.28 24 40 C26.64 40 29.28 40 32 40 C32 42.64 32 45.28 32 48 C18.8 48 5.6 48 -8 48 C-8 37.44 -8 26.88 -8 16 C-5.36 16 -2.72 16 0 16 C0 10.72 0 5.44 0 0 Z " fill="#000000" transform="translate(106,218)"/>
<path d="M0 0 C2.64 0 5.28 0 8 0 C8 2.64 8 5.28 8 8 C10.64 8 13.28 8 16 8 C16 10.64 16 13.28 16 16 C13.36 16 10.72 16 8 16 C8 18.64 8 21.28 8 24 C10.64 24 13.28 24 16 24 C16 26.64 16 29.28 16 32 C10.72 32 5.44 32 0 32 C0 34.64 0 37.28 0 40 C2.64 40 5.28 40 8 40 C8 45.28 8 50.56 8 56 C10.64 56 13.28 56 16 56 C16 61.28 16 66.56 16 72 C13.36 72 10.72 72 8 72 C8 69.36 8 66.72 8 64 C5.36 64 2.72 64 0 64 C0 58.72 0 53.44 0 48 C-5.28 48 -10.56 48 -16 48 C-16 45.36 -16 42.72 -16 40 C-13.36 40 -10.72 40 -8 40 C-8 32.08 -8 24.16 -8 16 C-5.36 16 -2.72 16 0 16 C0 10.72 0 5.44 0 0 Z " fill="#FFFFFF" transform="translate(234,146)"/>
<path d="M0 0 C7.92 0 15.84 0 24 0 C24 2.64 24 5.28 24 8 C21.36 8 18.72 8 16 8 C16 13.28 16 18.56 16 24 C10.72 24 5.44 24 0 24 C0 26.64 0 29.28 0 32 C2.64 32 5.28 32 8 32 C8 34.64 8 37.28 8 40 C-2.56 40 -13.12 40 -24 40 C-24 37.36 -24 34.72 -24 32 C-18.72 32 -13.44 32 -8 32 C-8 26.72 -8 21.44 -8 16 C-5.36 16 -2.72 16 0 16 C0 10.72 0 5.44 0 0 Z " fill="#000000" transform="translate(226,98)"/>
<path d="M0 0 C5.28 0 10.56 0 16 0 C16 2.64 16 5.28 16 8 C18.64 8 21.28 8 24 8 C24 13.28 24 18.56 24 24 C21.36 24 18.72 24 16 24 C16 26.64 16 29.28 16 32 C10.72 32 5.44 32 0 32 C0 26.72 0 21.44 0 16 C-5.28 16 -10.56 16 -16 16 C-16 13.36 -16 10.72 -16 8 C-10.72 8 -5.44 8 0 8 C0 5.36 0 2.72 0 0 Z " fill="#000000" transform="translate(162,234)"/>
<path d="M0 0 C5.28 0 10.56 0 16 0 C16 2.64 16 5.28 16 8 C18.64 8 21.28 8 24 8 C24 5.36 24 2.72 24 0 C26.64 0 29.28 0 32 0 C32 5.28 32 10.56 32 16 C29.36 16 26.72 16 24 16 C24 23.92 24 31.84 24 40 C21.36 40 18.72 40 16 40 C16 34.72 16 29.44 16 24 C10.72 24 5.44 24 0 24 C0 16.08 0 8.16 0 0 Z " fill="#000000" transform="translate(202,146)"/>
<path d="M0 0 C2.64 0 5.28 0 8 0 C8 2.64 8 5.28 8 8 C18.56 8 29.12 8 40 8 C40 10.64 40 13.28 40 16 C34.72 16 29.44 16 24 16 C24 21.28 24 26.56 24 32 C18.72 32 13.44 32 8 32 C8 29.36 8 26.72 8 24 C5.36 24 2.72 24 0 24 C0 16.08 0 8.16 0 0 Z " fill="#FFFFFF" transform="translate(122,226)"/>
<path d="M0 0 C2.64 0 5.28 0 8 0 C8 2.64 8 5.28 8 8 C10.64 8 13.28 8 16 8 C16 10.64 16 13.28 16 16 C13.36 16 10.72 16 8 16 C8 18.64 8 21.28 8 24 C10.64 24 13.28 24 16 24 C16 26.64 16 29.28 16 32 C13.36 32 10.72 32 8 32 C8 34.64 8 37.28 8 40 C10.64 40 13.28 40 16 40 C16 42.64 16 45.28 16 48 C10.72 48 5.44 48 0 48 C0 40.08 0 32.16 0 24 C-2.64 24 -5.28 24 -8 24 C-8 18.72 -8 13.44 -8 8 C-5.36 8 -2.72 8 0 8 C0 5.36 0 2.72 0 0 Z " fill="#000000" transform="translate(178,130)"/>
<path d="M0 0 C2.64 0 5.28 0 8 0 C8 2.64 8 5.28 8 8 C10.64 8 13.28 8 16 8 C16 10.64 16 13.28 16 16 C18.64 16 21.28 16 24 16 C24 10.72 24 5.44 24 0 C29.28 0 34.56 0 40 0 C40 2.64 40 5.28 40 8 C37.36 8 34.72 8 32 8 C32 13.28 32 18.56 32 24 C26.72 24 21.44 24 16 24 C16 26.64 16 29.28 16 32 C13.36 32 10.72 32 8 32 C8 29.36 8 26.72 8 24 C5.36 24 2.72 24 0 24 C0 16.08 0 8.16 0 0 Z " fill="#000000" transform="translate(98,50)"/>
<path d="M0 0 C7.92 0 15.84 0 24 0 C24 7.92 24 15.84 24 24 C16.08 24 8.16 24 0 24 C0 16.08 0 8.16 0 0 Z " fill="#000000" transform="translate(50,226)"/>
<path d="M0 0 C2.64 0 5.28 0 8 0 C8 5.28 8 10.56 8 16 C10.64 16 13.28 16 16 16 C16 13.36 16 10.72 16 8 C18.64 8 21.28 8 24 8 C24 13.28 24 18.56 24 24 C13.44 24 2.88 24 -8 24 C-8 21.36 -8 18.72 -8 16 C-10.64 16 -13.28 16 -16 16 C-16 13.36 -16 10.72 -16 8 C-10.72 8 -5.44 8 0 8 C0 5.36 0 2.72 0 0 Z " fill="#000000" transform="translate(138,210)"/>
<path d="M0 0 C7.92 0 15.84 0 24 0 C24 7.92 24 15.84 24 24 C16.08 24 8.16 24 0 24 C0 16.08 0 8.16 0 0 Z " fill="#FFFFFF" transform="translate(202,202)"/>
<path d="M0 0 C5.28 0 10.56 0 16 0 C16 2.64 16 5.28 16 8 C13.36 8 10.72 8 8 8 C8 10.64 8 13.28 8 16 C10.64 16 13.28 16 16 16 C16 26.56 16 37.12 16 48 C13.36 48 10.72 48 8 48 C8 40.08 8 32.16 8 24 C5.36 24 2.72 24 0 24 C0 21.36 0 18.72 0 16 C-2.64 16 -5.28 16 -8 16 C-8 13.36 -8 10.72 -8 8 C-5.36 8 -2.72 8 0 8 C0 5.36 0 2.72 0 0 Z " fill="#000000" transform="translate(250,154)"/>
<path d="M0 0 C7.92 0 15.84 0 24 0 C24 7.92 24 15.84 24 24 C16.08 24 8.16 24 0 24 C0 16.08 0 8.16 0 0 Z " fill="#000000" transform="translate(226,50)"/>
<path d="M0 0 C7.92 0 15.84 0 24 0 C24 7.92 24 15.84 24 24 C16.08 24 8.16 24 0 24 C0 16.08 0 8.16 0 0 Z " fill="#000000" transform="translate(50,50)"/>
<path d="M0 0 C5.28 0 10.56 0 16 0 C16 2.64 16 5.28 16 8 C18.64 8 21.28 8 24 8 C24 10.64 24 13.28 24 16 C21.36 16 18.72 16 16 16 C16 18.64 16 21.28 16 24 C10.72 24 5.44 24 0 24 C0 21.36 0 18.72 0 16 C-2.64 16 -5.28 16 -8 16 C-8 13.36 -8 10.72 -8 8 C-5.36 8 -2.72 8 0 8 C0 5.36 0 2.72 0 0 Z " fill="#000000" transform="translate(58,178)"/>
<path d="M0 0 C2.64 0 5.28 0 8 0 C8 2.64 8 5.28 8 8 C13.28 8 18.56 8 24 8 C24 13.28 24 18.56 24 24 C16.08 24 8.16 24 0 24 C0 21.36 0 18.72 0 16 C-2.64 16 -5.28 16 -8 16 C-8 13.36 -8 10.72 -8 8 C-5.36 8 -2.72 8 0 8 C0 5.36 0 2.72 0 0 Z " fill="#000000" transform="translate(50,154)"/>
<path d="M0 0 C2.64 0 5.28 0 8 0 C8 2.64 8 5.28 8 8 C13.28 8 18.56 8 24 8 C24 10.64 24 13.28 24 16 C18.72 16 13.44 16 8 16 C8 18.64 8 21.28 8 24 C5.36 24 2.72 24 0 24 C0 26.64 0 29.28 0 32 C-2.64 32 -5.28 32 -8 32 C-8 24.08 -8 16.16 -8 8 C-5.36 8 -2.72 8 0 8 C0 5.36 0 2.72 0 0 Z " fill="#000000" transform="translate(186,90)"/>
<path d="M0 0 C5.28 0 10.56 0 16 0 C16 2.64 16 5.28 16 8 C18.64 8 21.28 8 24 8 C24 10.64 24 13.28 24 16 C21.36 16 18.72 16 16 16 C16 18.64 16 21.28 16 24 C13.36 24 10.72 24 8 24 C8 18.72 8 13.44 8 8 C5.36 8 2.72 8 0 8 C0 5.36 0 2.72 0 0 Z " fill="#000000" transform="translate(66,154)"/>
<path d="M0 0 C2.64 0 5.28 0 8 0 C8 10.56 8 21.12 8 32 C5.36 32 2.72 32 0 32 C0 26.72 0 21.44 0 16 C-2.64 16 -5.28 16 -8 16 C-8 13.36 -8 10.72 -8 8 C-5.36 8 -2.72 8 0 8 C0 5.36 0 2.72 0 0 Z " fill="#000000" transform="translate(194,34)"/>
<path d="M0 0 C2.64 0 5.28 0 8 0 C8 5.28 8 10.56 8 16 C5.36 16 2.72 16 0 16 C0 18.64 0 21.28 0 24 C-2.64 24 -5.28 24 -8 24 C-8 18.72 -8 13.44 -8 8 C-5.36 8 -2.72 8 0 8 C0 5.36 0 2.72 0 0 Z " fill="#FFFFFF" transform="translate(194,234)"/>
<path d="M0 0 C5.28 0 10.56 0 16 0 C16 7.92 16 15.84 16 24 C13.36 24 10.72 24 8 24 C8 18.72 8 13.44 8 8 C5.36 8 2.72 8 0 8 C0 5.36 0 2.72 0 0 Z " fill="#000000" transform="translate(234,178)"/>
<path d="M0 0 C2.64 0 5.28 0 8 0 C8 5.28 8 10.56 8 16 C2.72 16 -2.56 16 -8 16 C-8 13.36 -8 10.72 -8 8 C-5.36 8 -2.72 8 0 8 C0 5.36 0 2.72 0 0 Z " fill="#000000" transform="translate(194,250)"/>
<path d="M0 0 C2.64 0 5.28 0 8 0 C8 7.92 8 15.84 8 24 C5.36 24 2.72 24 0 24 C0 16.08 0 8.16 0 0 Z " fill="#FFFFFF" transform="translate(106,234)"/>
<path d="M0 0 C2.64 0 5.28 0 8 0 C8 7.92 8 15.84 8 24 C5.36 24 2.72 24 0 24 C0 16.08 0 8.16 0 0 Z " fill="#FFFFFF" transform="translate(250,178)"/>
<path d="M0 0 C2.64 0 5.28 0 8 0 C8 5.28 8 10.56 8 16 C2.72 16 -2.56 16 -8 16 C-8 13.36 -8 10.72 -8 8 C-5.36 8 -2.72 8 0 8 C0 5.36 0 2.72 0 0 Z " fill="#FFFFFF" transform="translate(90,162)"/>
<path d="M0 0 C2.64 0 5.28 0 8 0 C8 5.28 8 10.56 8 16 C2.72 16 -2.56 16 -8 16 C-8 13.36 -8 10.72 -8 8 C-5.36 8 -2.72 8 0 8 C0 5.36 0 2.72 0 0 Z " fill="#FFFFFF" transform="translate(66,162)"/>
<path d="M0 0 C2.64 0 5.28 0 8 0 C8 7.92 8 15.84 8 24 C5.36 24 2.72 24 0 24 C0 16.08 0 8.16 0 0 Z " fill="#FFFFFF" transform="translate(170,154)"/>
<path d="M0 0 C2.64 0 5.28 0 8 0 C8 7.92 8 15.84 8 24 C5.36 24 2.72 24 0 24 C0 16.08 0 8.16 0 0 Z " fill="#000000" transform="translate(162,154)"/>
<path d="M0 0 C5.28 0 10.56 0 16 0 C16 5.28 16 10.56 16 16 C13.36 16 10.72 16 8 16 C8 13.36 8 10.72 8 8 C5.36 8 2.72 8 0 8 C0 5.36 0 2.72 0 0 Z " fill="#000000" transform="translate(234,138)"/>
<path d="M0 0 C2.64 0 5.28 0 8 0 C8 7.92 8 15.84 8 24 C5.36 24 2.72 24 0 24 C0 16.08 0 8.16 0 0 Z " fill="#000000" transform="translate(154,122)"/>
<path d="M0 0 C2.64 0 5.28 0 8 0 C8 5.28 8 10.56 8 16 C2.72 16 -2.56 16 -8 16 C-8 13.36 -8 10.72 -8 8 C-5.36 8 -2.72 8 0 8 C0 5.36 0 2.72 0 0 Z " fill="#FFFFFF" transform="translate(210,114)"/>
<path d="M0 0 C5.28 0 10.56 0 16 0 C16 2.64 16 5.28 16 8 C13.36 8 10.72 8 8 8 C8 10.64 8 13.28 8 16 C5.36 16 2.72 16 0 16 C0 10.72 0 5.44 0 0 Z " fill="#000000" transform="translate(194,114)"/>
<path d="M0 0 C2.64 0 5.28 0 8 0 C8 7.92 8 15.84 8 24 C5.36 24 2.72 24 0 24 C0 16.08 0 8.16 0 0 Z " fill="#000000" transform="translate(250,106)"/>
<path d="M0 0 C2.64 0 5.28 0 8 0 C8 5.28 8 10.56 8 16 C2.72 16 -2.56 16 -8 16 C-8 13.36 -8 10.72 -8 8 C-5.36 8 -2.72 8 0 8 C0 5.36 0 2.72 0 0 Z " fill="#000000" transform="translate(162,98)"/>
<path d="M0 0 C5.28 0 10.56 0 16 0 C16 5.28 16 10.56 16 16 C13.36 16 10.72 16 8 16 C8 13.36 8 10.72 8 8 C5.36 8 2.72 8 0 8 C0 5.36 0 2.72 0 0 Z " fill="#FFFFFF" transform="translate(114,74)"/>
<path d="M0 0 C5.28 0 10.56 0 16 0 C16 2.64 16 5.28 16 8 C10.72 8 5.44 8 0 8 C0 5.36 0 2.72 0 0 Z " fill="#000000" transform="translate(210,258)"/>
<path d="M0 0 C2.64 0 5.28 0 8 0 C8 5.28 8 10.56 8 16 C5.36 16 2.72 16 0 16 C0 10.72 0 5.44 0 0 Z " fill="#000000" transform="translate(258,242)"/>
<path d="M0 0 C2.64 0 5.28 0 8 0 C8 5.28 8 10.56 8 16 C5.36 16 2.72 16 0 16 C0 10.72 0 5.44 0 0 Z " fill="#FFFFFF" transform="translate(250,242)"/>
<path d="M0 0 C2.64 0 5.28 0 8 0 C8 5.28 8 10.56 8 16 C5.36 16 2.72 16 0 16 C0 10.72 0 5.44 0 0 Z " fill="#FFFFFF" transform="translate(234,226)"/>
<path d="M0 0 C2.64 0 5.28 0 8 0 C8 5.28 8 10.56 8 16 C5.36 16 2.72 16 0 16 C0 10.72 0 5.44 0 0 Z " fill="#000000" transform="translate(250,202)"/>
<path d="M0 0 C5.28 0 10.56 0 16 0 C16 2.64 16 5.28 16 8 C10.72 8 5.44 8 0 8 C0 5.36 0 2.72 0 0 Z " fill="#000000" transform="translate(58,138)"/>
<path d="M0 0 C5.28 0 10.56 0 16 0 C16 2.64 16 5.28 16 8 C10.72 8 5.44 8 0 8 C0 5.36 0 2.72 0 0 Z " fill="#FFFFFF" transform="translate(194,106)"/>
<path d="M0 0 C2.64 0 5.28 0 8 0 C8 5.28 8 10.56 8 16 C5.36 16 2.72 16 0 16 C0 10.72 0 5.44 0 0 Z " fill="#FFFFFF" transform="translate(50,106)"/>
<path d="M0 0 C2.64 0 5.28 0 8 0 C8 5.28 8 10.56 8 16 C5.36 16 2.72 16 0 16 C0 10.72 0 5.44 0 0 Z " fill="#000000" transform="translate(130,74)"/>
<path d="M0 0 C5.28 0 10.56 0 16 0 C16 2.64 16 5.28 16 8 C10.72 8 5.44 8 0 8 C0 5.36 0 2.72 0 0 Z " fill="#000000" transform="translate(98,34)"/>
<path d="M0 0 C2.64 0 5.28 0 8 0 C8 2.64 8 5.28 8 8 C5.36 8 2.72 8 0 8 C0 5.36 0 2.72 0 0 Z " fill="#000000" transform="translate(250,258)"/>
<path d="M0 0 C2.64 0 5.28 0 8 0 C8 2.64 8 5.28 8 8 C5.36 8 2.72 8 0 8 C0 5.36 0 2.72 0 0 Z " fill="#000000" transform="translate(146,258)"/>
<path d="M0 0 C2.64 0 5.28 0 8 0 C8 2.64 8 5.28 8 8 C5.36 8 2.72 8 0 8 C0 5.36 0 2.72 0 0 Z " fill="#FFFFFF" transform="translate(170,250)"/>
<path d="M0 0 C2.64 0 5.28 0 8 0 C8 2.64 8 5.28 8 8 C5.36 8 2.72 8 0 8 C0 5.36 0 2.72 0 0 Z " fill="#000000" transform="translate(138,250)"/>
<path d="M0 0 C2.64 0 5.28 0 8 0 C8 2.64 8 5.28 8 8 C5.36 8 2.72 8 0 8 C0 5.36 0 2.72 0 0 Z " fill="#FFFFFF" transform="translate(130,250)"/>
<path d="M0 0 C2.64 0 5.28 0 8 0 C8 2.64 8 5.28 8 8 C5.36 8 2.72 8 0 8 C0 5.36 0 2.72 0 0 Z " fill="#000000" transform="translate(130,242)"/>
<path d="M0 0 C2.64 0 5.28 0 8 0 C8 2.64 8 5.28 8 8 C5.36 8 2.72 8 0 8 C0 5.36 0 2.72 0 0 Z " fill="#FFFFFF" transform="translate(218,234)"/>
<path d="M0 0 C2.64 0 5.28 0 8 0 C8 2.64 8 5.28 8 8 C5.36 8 2.72 8 0 8 C0 5.36 0 2.72 0 0 Z " fill="#000000" transform="translate(186,234)"/>
<path d="M0 0 C2.64 0 5.28 0 8 0 C8 2.64 8 5.28 8 8 C5.36 8 2.72 8 0 8 C0 5.36 0 2.72 0 0 Z " fill="#FFFFFF" transform="translate(114,218)"/>
<path d="M0 0 C2.64 0 5.28 0 8 0 C8 2.64 8 5.28 8 8 C5.36 8 2.72 8 0 8 C0 5.36 0 2.72 0 0 Z " fill="#000000" transform="translate(210,210)"/>
<path d="M0 0 C2.64 0 5.28 0 8 0 C8 2.64 8 5.28 8 8 C5.36 8 2.72 8 0 8 C0 5.36 0 2.72 0 0 Z " fill="#000000" transform="translate(114,210)"/>
<path d="M0 0 C2.64 0 5.28 0 8 0 C8 2.64 8 5.28 8 8 C5.36 8 2.72 8 0 8 C0 5.36 0 2.72 0 0 Z " fill="#FFFFFF" transform="translate(138,202)"/>
<path d="M0 0 C2.64 0 5.28 0 8 0 C8 2.64 8 5.28 8 8 C5.36 8 2.72 8 0 8 C0 5.36 0 2.72 0 0 Z " fill="#000000" transform="translate(98,202)"/>
<path d="M0 0 C2.64 0 5.28 0 8 0 C8 2.64 8 5.28 8 8 C5.36 8 2.72 8 0 8 C0 5.36 0 2.72 0 0 Z " fill="#000000" transform="translate(82,194)"/>
<path d="M0 0 C2.64 0 5.28 0 8 0 C8 2.64 8 5.28 8 8 C5.36 8 2.72 8 0 8 C0 5.36 0 2.72 0 0 Z " fill="#000000" transform="translate(42,194)"/>
<path d="M0 0 C2.64 0 5.28 0 8 0 C8 2.64 8 5.28 8 8 C5.36 8 2.72 8 0 8 C0 5.36 0 2.72 0 0 Z " fill="#FFFFFF" transform="translate(82,186)"/>
<path d="M0 0 C2.64 0 5.28 0 8 0 C8 2.64 8 5.28 8 8 C5.36 8 2.72 8 0 8 C0 5.36 0 2.72 0 0 Z " fill="#000000" transform="translate(170,178)"/>
<path d="M0 0 C2.64 0 5.28 0 8 0 C8 2.64 8 5.28 8 8 C5.36 8 2.72 8 0 8 C0 5.36 0 2.72 0 0 Z " fill="#FFFFFF" transform="translate(162,178)"/>
<path d="M0 0 C2.64 0 5.28 0 8 0 C8 2.64 8 5.28 8 8 C5.36 8 2.72 8 0 8 C0 5.36 0 2.72 0 0 Z " fill="#FFFFFF" transform="translate(98,178)"/>
<path d="M0 0 C2.64 0 5.28 0 8 0 C8 2.64 8 5.28 8 8 C5.36 8 2.72 8 0 8 C0 5.36 0 2.72 0 0 Z " fill="#FFFFFF" transform="translate(74,178)"/>
<path d="M0 0 C2.64 0 5.28 0 8 0 C8 2.64 8 5.28 8 8 C5.36 8 2.72 8 0 8 C0 5.36 0 2.72 0 0 Z " fill="#000000" transform="translate(34,178)"/>
<path d="M0 0 C2.64 0 5.28 0 8 0 C8 2.64 8 5.28 8 8 C5.36 8 2.72 8 0 8 C0 5.36 0 2.72 0 0 Z " fill="#FFFFFF" transform="translate(82,154)"/>
<path d="M0 0 C2.64 0 5.28 0 8 0 C8 2.64 8 5.28 8 8 C5.36 8 2.72 8 0 8 C0 5.36 0 2.72 0 0 Z " fill="#000000" transform="translate(34,154)"/>
<path d="M0 0 C2.64 0 5.28 0 8 0 C8 2.64 8 5.28 8 8 C5.36 8 2.72 8 0 8 C0 5.36 0 2.72 0 0 Z " fill="#000000" transform="translate(146,146)"/>
<path d="M0 0 C2.64 0 5.28 0 8 0 C8 2.64 8 5.28 8 8 C5.36 8 2.72 8 0 8 C0 5.36 0 2.72 0 0 Z " fill="#FFFFFF" transform="translate(90,146)"/>
<path d="M0 0 C2.64 0 5.28 0 8 0 C8 2.64 8 5.28 8 8 C5.36 8 2.72 8 0 8 C0 5.36 0 2.72 0 0 Z " fill="#000000" transform="translate(82,146)"/>
<path d="M0 0 C2.64 0 5.28 0 8 0 C8 2.64 8 5.28 8 8 C5.36 8 2.72 8 0 8 C0 5.36 0 2.72 0 0 Z " fill="#000000" transform="translate(42,146)"/>
<path d="M0 0 C2.64 0 5.28 0 8 0 C8 2.64 8 5.28 8 8 C5.36 8 2.72 8 0 8 C0 5.36 0 2.72 0 0 Z " fill="#000000" transform="translate(34,138)"/>
<path d="M0 0 C2.64 0 5.28 0 8 0 C8 2.64 8 5.28 8 8 C5.36 8 2.72 8 0 8 C0 5.36 0 2.72 0 0 Z " fill="#000000" transform="translate(82,130)"/>
<path d="M0 0 C2.64 0 5.28 0 8 0 C8 2.64 8 5.28 8 8 C5.36 8 2.72 8 0 8 C0 5.36 0 2.72 0 0 Z " fill="#000000" transform="translate(170,122)"/>
<path d="M0 0 C2.64 0 5.28 0 8 0 C8 2.64 8 5.28 8 8 C5.36 8 2.72 8 0 8 C0 5.36 0 2.72 0 0 Z " fill="#000000" transform="translate(210,106)"/>
<path d="M0 0 C2.64 0 5.28 0 8 0 C8 2.64 8 5.28 8 8 C5.36 8 2.72 8 0 8 C0 5.36 0 2.72 0 0 Z " fill="#000000" transform="translate(106,106)"/>
<path d="M0 0 C2.64 0 5.28 0 8 0 C8 2.64 8 5.28 8 8 C5.36 8 2.72 8 0 8 C0 5.36 0 2.72 0 0 Z " fill="#000000" transform="translate(258,98)"/>
<path d="M0 0 C2.64 0 5.28 0 8 0 C8 2.64 8 5.28 8 8 C5.36 8 2.72 8 0 8 C0 5.36 0 2.72 0 0 Z " fill="#000000" transform="translate(138,98)"/>
<path d="M0 0 C2.64 0 5.28 0 8 0 C8 2.64 8 5.28 8 8 C5.36 8 2.72 8 0 8 C0 5.36 0 2.72 0 0 Z " fill="#000000" transform="translate(98,98)"/>
<path d="M0 0 C2.64 0 5.28 0 8 0 C8 2.64 8 5.28 8 8 C5.36 8 2.72 8 0 8 C0 5.36 0 2.72 0 0 Z " fill="#000000" transform="translate(82,98)"/>
<path d="M0 0 C2.64 0 5.28 0 8 0 C8 2.64 8 5.28 8 8 C5.36 8 2.72 8 0 8 C0 5.36 0 2.72 0 0 Z " fill="#FFFFFF" transform="translate(178,90)"/>
<path d="M0 0 C2.64 0 5.28 0 8 0 C8 2.64 8 5.28 8 8 C5.36 8 2.72 8 0 8 C0 5.36 0 2.72 0 0 Z " fill="#000000" transform="translate(170,90)"/>
<path d="M0 0 C2.64 0 5.28 0 8 0 C8 2.64 8 5.28 8 8 C5.36 8 2.72 8 0 8 C0 5.36 0 2.72 0 0 Z " fill="#FFFFFF" transform="translate(162,90)"/>
<path d="M0 0 C2.64 0 5.28 0 8 0 C8 2.64 8 5.28 8 8 C5.36 8 2.72 8 0 8 C0 5.36 0 2.72 0 0 Z " fill="#000000" transform="translate(154,90)"/>
<path d="M0 0 C2.64 0 5.28 0 8 0 C8 2.64 8 5.28 8 8 C5.36 8 2.72 8 0 8 C0 5.36 0 2.72 0 0 Z " fill="#000000" transform="translate(122,90)"/>
<path d="M0 0 C2.64 0 5.28 0 8 0 C8 2.64 8 5.28 8 8 C5.36 8 2.72 8 0 8 C0 5.36 0 2.72 0 0 Z " fill="#000000" transform="translate(106,90)"/>
<path d="M0 0 C2.64 0 5.28 0 8 0 C8 2.64 8 5.28 8 8 C5.36 8 2.72 8 0 8 C0 5.36 0 2.72 0 0 Z " fill="#000000" transform="translate(194,82)"/>
<path d="M0 0 C2.64 0 5.28 0 8 0 C8 2.64 8 5.28 8 8 C5.36 8 2.72 8 0 8 C0 5.36 0 2.72 0 0 Z " fill="#FFFFFF" transform="translate(170,82)"/>
<path d="M0 0 C2.64 0 5.28 0 8 0 C8 2.64 8 5.28 8 8 C5.36 8 2.72 8 0 8 C0 5.36 0 2.72 0 0 Z " fill="#FFFFFF" transform="translate(154,82)"/>
<path d="M0 0 C2.64 0 5.28 0 8 0 C8 2.64 8 5.28 8 8 C5.36 8 2.72 8 0 8 C0 5.36 0 2.72 0 0 Z " fill="#000000" transform="translate(114,82)"/>
<path d="M0 0 C2.64 0 5.28 0 8 0 C8 2.64 8 5.28 8 8 C5.36 8 2.72 8 0 8 C0 5.36 0 2.72 0 0 Z " fill="#000000" transform="translate(98,82)"/>
<path d="M0 0 C2.64 0 5.28 0 8 0 C8 2.64 8 5.28 8 8 C5.36 8 2.72 8 0 8 C0 5.36 0 2.72 0 0 Z " fill="#000000" transform="translate(138,42)"/>
<path d="M0 0 C2.64 0 5.28 0 8 0 C8 2.64 8 5.28 8 8 C5.36 8 2.72 8 0 8 C0 5.36 0 2.72 0 0 Z " fill="#000000" transform="translate(162,34)"/>
<path d="M0 0 C2.64 0 5.28 0 8 0 C8 2.64 8 5.28 8 8 C5.36 8 2.72 8 0 8 C0 5.36 0 2.72 0 0 Z " fill="#000000" transform="translate(146,34)"/>
</svg>
